<?xml version="1.0" encoding="UTF-8"?>
<!DOCTYPE svg PUBLIC "-//W3C//DTD SVG 1.1//EN" "http://www.w3.org/Graphics/SVG/1.1/DTD/svg11.dtd">
<svg xmlns="http://www.w3.org/2000/svg" version="1.1" width="512px" height="512px" style="shape-rendering:geometricPrecision; text-rendering:geometricPrecision; image-rendering:optimizeQuality; fill-rule:evenodd; clip-rule:evenodd" xmlns:xlink="http://www.w3.org/1999/xlink">
<g><path style="opacity:0.983" fill="#000000" d="M 511.5,457.5 C 511.5,463.5 511.5,469.5 511.5,475.5C 505.29,495.858 491.457,506.858 470,508.5C 458.277,508.053 448.111,503.886 439.5,496C 401,457.5 362.5,419 324,380.5C 265.236,418.884 202.403,427.05 135.5,405C 57.0184,372.683 11.6851,314.517 -0.5,230.5C -0.5,216.833 -0.5,203.167 -0.5,189.5C 10.6185,110.222 52.2851,53.3889 124.5,19C 203.837,-11.1714 276.504,0.161979 342.5,53C 404.959,111.632 426.126,182.799 406,266.5C 400.384,285.193 392.551,302.86 382.5,319.5C 422.486,359.986 462.653,400.32 503,440.5C 506.939,445.712 509.773,451.379 511.5,457.5 Z M 196.5,70.5 C 254.971,69.4741 299.138,93.8075 329,143.5C 355.346,198.298 350.346,249.965 314,298.5C 268.67,347.373 214.503,360.54 151.5,338C 92.3894,308.64 64.556,260.807 68,194.5C 77.1549,136.353 109.322,97.1859 164.5,77C 175.109,73.8497 185.776,71.683 196.5,70.5 Z"/></g>
</svg>
